<svg width="72px" height="72px" viewBox="0 0 72 72" version="1.1" xmlns="http://www.w3.org/2000/svg" xmlns:xlink="http://www.w3.org/1999/xlink">
    <g id="Page-1" stroke="none" stroke-width="1" fill="none" fill-rule="evenodd">
        <g id="Теле2" transform="translate(-825.000000, -2072.000000)">
            <rect id="Mask" fill="#F2F2F2" x="0" y="1576" width="1440" height="784"></rect>
            <circle id="Oval" fill="#FFFFFF" cx="861" cy="2108" r="36"></circle>
            <g id="laptop" transform="translate(825.000000, 2072.000000)">
                <path d="M56.5520112,45.925 L54.6967303,45.925 C54.7014652,45.8595288 54.7014652,45.793861 54.6967303,45.7283898 L54.6967303,23.3777458 C54.696827,22.6267932 54.1051663,22.0143525 53.3671124,22.0014746 L19.5468876,22.0014746 C18.7997506,22.0014746 18.1940787,22.6176508 18.1940787,23.3777458 L18.1940787,45.7283898 C18.1894404,45.793861 18.1894404,45.8595288 18.1940787,45.925 L16.3542584,45.925 C15.570209,45.9673695 14.966373,46.6448881 15.0014494,47.4428305 L15.0014494,49.385339 C14.966373,50.1832814 15.570209,50.8608 16.3542584,50.9031695 L56.5520112,50.9031695 C57.3360607,50.8608 57.9398966,50.1832814 57.9048202,49.385339 L57.9048202,47.4428305 C57.9398966,46.6448881 57.3360607,45.9673695 56.5520112,45.925 Z M19.3536292,23.3777458 C19.3536292,23.2691186 19.4401124,23.1811356 19.5468876,23.1811356 L53.3671124,23.1811356 C53.4738876,23.1811356 53.5603708,23.2691186 53.5603708,23.3777458 L53.5603708,45.7283898 C53.5603708,45.8370169 53.4738876,45.925 53.3671124,45.925 L19.5468876,45.925 C19.4401124,45.925 19.3536292,45.8370169 19.3536292,45.7283898 L19.3536292,23.3777458 Z M56.5906629,49.7235085 L16.3542584,49.7235085 C16.2769551,49.7235085 16.161,49.5898136 16.161,49.385339 L16.161,47.4428305 C16.161,47.2383559 16.2769551,47.104661 16.3542584,47.104661 L56.5520112,47.104661 C56.6293146,47.104661 56.7452697,47.2383559 56.7452697,47.4428305 L56.7839213,49.385339 C56.7839213,49.5898136 56.6679663,49.7235085 56.5906629,49.7235085 Z" id="Shape" fill="#000000" fill-rule="nonzero"></path>
                <path d="M49.849809,24.5888644 L23.0564607,24.5888644 C22.321209,24.5886678 21.7204652,25.1858712 21.7036517,25.933678 L21.7036517,43.141 C21.7036517,43.9010949 22.3093236,44.5172712 23.0564607,44.5172712 L49.849809,44.5172712 C50.5969461,44.5172712 51.202618,43.9010949 51.202618,43.141 L51.202618,25.933678 C51.1858045,25.1858712 50.5850607,24.5886678 49.849809,24.5888644 Z M50.0430674,43.1331356 C50.0430674,43.2417627 49.9565843,43.3297458 49.849809,43.3297458 L23.0564607,43.3297458 C22.9496854,43.3297458 22.8632022,43.2417627 22.8632022,43.1331356 L22.8632022,25.933678 C22.8632022,25.8250508 22.9496854,25.7370678 23.0564607,25.7370678 L49.849809,25.7370678 C49.9565843,25.7370678 50.0430674,25.8250508 50.0430674,25.933678 L50.0430674,43.1331356 Z" id="Shape" fill="#000000" fill-rule="nonzero"></path>
                <circle id="Oval" stroke="#000000" cx="37" cy="32" r="2.5"></circle>
                <path d="M44,43 L42.9775764,43 C42.4966277,40.1622867 40.0034118,38 37,38 C33.9965882,38 31.5033723,40.1622867 31.0224236,43 L30,43 C30.4901938,39.6077059 33.4374502,37 37,37 C40.5625498,37 43.5098062,39.6077059 44,43 Z" id="Combined-Shape" fill="#000000" fill-rule="nonzero"></path>
            </g>
        </g>
    </g>
</svg>
