<svg width="72px" height="72px" viewBox="0 0 72 72" version="1.1" xmlns="http://www.w3.org/2000/svg" xmlns:xlink="http://www.w3.org/1999/xlink">
    <g id="Page-1" stroke="none" stroke-width="1" fill="none" fill-rule="evenodd">
        <g id="Теле2" transform="translate(-661.000000, -2072.000000)">
            <rect id="Mask" fill="#F2F2F2" x="0" y="1576" width="1440" height="784"></rect>
            <circle id="Oval" fill="#FFFFFF" cx="697" cy="2108" r="36"></circle>
            <g id="mobile-phone" transform="translate(661.000000, 2072.000000)" fill="#000000" fill-rule="nonzero">
                <path d="M41.352933,17.0078818 L30.522292,17.0078818 C29.0397243,16.9292753 27.5879859,17.4412543 26.4996072,18.4265312 C25.4515193,19.5342807 24.9137084,21.0121442 25.0112989,22.5165555 L25.0112989,50.4913263 C25.0112989,54.5481658 27.9283832,56 30.6583659,56 L41.352933,56 C45.5116917,56 47,53.154405 47,50.4913263 L47,22.5082593 C47,18.4514198 44.0829157,17.0078818 41.352933,17.0078818 Z M41.352933,54.7555707 L30.6583659,54.7555707 C29.3486546,54.7555707 26.2869918,54.3407609 26.2869918,50.4913263 L26.2869918,47.1728481 L45.7159226,47.1728481 L45.7158025,50.4913263 C45.7243072,51.7689404 45.2905716,54.7555707 41.352933,54.7555707 Z M45.7158025,45.9450112 L26.2869918,45.9450112 L26.2869918,24.2421641 L45.7158025,24.2421641 L45.7158025,45.9450112 Z M45.7243072,23.006031 L26.2869918,23.006031 L26.2869918,22.5165555 C26.1990753,21.346066 26.6010248,20.1907171 27.4010969,19.3142241 C28.2698437,18.5541889 29.4178609,18.1709046 30.5818244,18.2523111 L41.352933,18.2523111 C42.6626443,18.2523111 45.7243072,18.6671208 45.7243072,22.5165555 L45.7243072,23.006031 Z" id="Shape"></path>
                <path d="M38.3951613,20 L34.6048387,20 C34.2707661,20 34,20.2238333 34,20.5 C34,20.7761667 34.2707661,21 34.6048387,21 L38.3951613,21 C38.7292339,21 39,20.7761667 39,20.5 C39,20.2238333 38.7292339,20 38.3951613,20 Z" id="Path"></path>
                <path d="M35.9908885,48 C34.3340535,48.0041793 32.9949989,49.1268971 33.000014,50.5075929 C33.0050292,51.8882888 34.3522905,53.0041676 36.0091255,52.9999883 C37.6588937,52.995809 38.9949848,51.8823997 39,50.5075929 C39,49.1227177 37.6527387,48 35.9908885,48 Z M35.9908885,51.8601733 C35.9908885,51.8601733 35.9908885,51.8601733 35.9908885,51.8601733 L35.9908885,51.8677721 C35.0894088,51.8635928 34.3627768,51.2512272 34.367792,50.4999941 C34.3728072,49.7487611 35.1076459,49.1432344 36.0091255,49.1474137 C36.9069578,49.151593 37.632222,49.7593044 37.632222,50.5075929 C37.6272069,51.258826 36.8923682,51.8643527 35.9908885,51.8601733 Z" id="Shape"></path>
            </g>
        </g>
    </g>
</svg>
