<svg width="72px" height="72px" viewBox="0 0 72 72" version="1.1" xmlns="http://www.w3.org/2000/svg" xmlns:xlink="http://www.w3.org/1999/xlink">
    <g id="Page-1" stroke="none" stroke-width="1" fill="none" fill-rule="evenodd">
        <g id="Теле2" transform="translate(-995.000000, -2072.000000)">
            <rect id="Mask" fill="#F2F2F2" x="0" y="1576" width="1440" height="784"></rect>
            <circle id="Oval" fill="#FFFFFF" cx="1031" cy="2108" r="36"></circle>
            <g id="ussd" transform="translate(995.000000, 2072.000000)" fill="#000000" fill-rule="nonzero">
                <path d="M49.7361963,45.644 L50.3803681,43.3706667 L48.1564417,43.3706667 L47.5122699,45.644 L49.7361963,45.644 Z M48.5245399,50 L49.4141104,46.832 L47.190184,46.832 L46.3006135,50 L44.8588957,50 L45.7484663,46.832 L44,46.832 L44.3067485,45.644 L46.0705521,45.644 L46.7147239,43.3706667 L44.9509202,43.3706667 L45.2576687,42.1826667 L47.0368098,42.1826667 L47.9263804,39 L49.3680982,39 L48.4785276,42.1826667 L50.702454,42.1826667 L51.5920245,39 L53.0490798,39 L52.1595092,42.1826667 L54,42.1826667 L53.6932515,43.3706667 L51.8374233,43.3706667 L51.1932515,45.644 L53.0490798,45.644 L52.7423313,46.832 L50.8711656,46.832 L49.9815951,50 L48.5245399,50 Z" id="#"></path>
                <g id="phone-call-(1)" transform="translate(33.698137, 39.698137) scale(-1, 1) rotate(16.000000) translate(-33.698137, -39.698137) translate(20.198137, 26.198137)">
                    <path d="M21.0172143,12.4928604 C20.4442185,11.8962359 19.7530793,11.5772486 19.0205898,11.5772486 C18.2940075,11.5772486 17.5969611,11.8903287 17.0003367,12.4869532 L15.13367,14.3477127 C14.9800835,14.2650123 14.826497,14.188219 14.6788177,14.1114258 C14.4661594,14.0050967 14.2653156,13.9046747 14.0940075,13.7983456 C12.3454843,12.6877971 10.7564548,11.2405397 9.23240416,9.36796587 C8.49400754,8.43463254 7.99780501,7.64897853 7.63746745,6.85151018 C8.12185564,6.4084722 8.57080079,5.94771271 9.00793159,5.50467474 C9.17333243,5.33927389 9.33873328,5.16796587 9.50413412,5.00256503 C10.7446405,3.7620587 10.7446405,2.15530765 9.50413412,0.914801318 L7.89147589,-0.69785691 C7.70835353,-0.880979273 7.51932399,-1.07000881 7.3421088,-1.25903834 C6.98767842,-1.62528307 6.61552653,-2.00334214 6.23156028,-2.35777252 C5.6585645,-2.92486113 4.97333243,-3.22612695 4.25265733,-3.22612695 C3.53198222,-3.22612695 2.83493581,-2.92486113 2.24421851,-2.35777252 C2.23831134,-2.35186535 2.23831134,-2.35186535 2.23240416,-2.34595818 L0.223965345,-0.319797839 C-0.532152799,0.436320305 -0.963376427,1.35783929 -1.0578912,2.4270376 C-1.19966335,4.15193212 -0.69164647,5.75868317 -0.301773052,6.81015997 C0.655188973,9.39159457 2.08472484,11.7839996 4.21721429,14.3477127 C6.80455606,17.4371642 9.91763623,19.8768266 13.4737544,21.595814 C14.8324042,22.2396958 16.6459063,23.0017211 18.6720666,23.131679 C18.7961172,23.1375861 18.926075,23.1434933 19.0442185,23.1434933 C20.4087755,23.1434933 21.554767,22.6531979 22.4526573,21.6785144 C22.4585645,21.6667001 22.4703788,21.6607929 22.476286,21.6489785 C22.783459,21.2768266 23.1378894,20.9401178 23.5100413,20.5797802 C23.7640497,20.3375861 24.0239653,20.0835777 24.2779738,19.8177549 C24.8627839,19.2093161 25.1699569,18.5004553 25.1699569,17.773873 C25.1699569,17.0413836 24.8568767,16.33843 24.2602523,15.7477127 L21.0172143,12.4928604 Z M23.1319822,18.7131136 C23.126075,18.7131136 23.126075,18.7190207 23.1319822,18.7131136 C22.9016025,18.9612148 22.6653156,19.1856874 22.4113071,19.4337887 C22.0273409,19.8000334 21.6374675,20.1839996 21.2712227,20.6152233 C20.6745983,21.2531979 19.9716447,21.5544638 19.0501257,21.5544638 C18.9615181,21.5544638 18.8670033,21.5544638 18.7783957,21.5485566 C17.0239653,21.4363203 15.3935856,20.7510882 14.1708008,20.1662781 C10.8273409,18.5477127 7.89147589,16.2498224 5.45181345,13.3375861 C3.43746745,10.909738 2.09063201,8.66501229 1.19864889,6.25488571 C0.6492818,4.78399963 0.448437919,3.63800807 0.537045513,2.55699541 C0.596117243,1.86585617 0.861940028,1.29286039 1.35223539,0.802565031 L3.36658138,-1.21178096 C3.65603286,-1.48351092 3.96320585,-1.63119024 4.26447167,-1.63119024 C4.63662357,-1.63119024 4.9378894,-1.40671767 5.12691893,-1.21768813 C5.1328261,-1.21178096 5.13873328,-1.20587379 5.14464045,-1.19996661 C5.504978,-0.863257754 5.84759404,-0.514734547 6.20793159,-0.142582649 C6.39105395,0.0464468871 6.58008349,0.235476423 6.76911302,0.430413132 L8.38177125,2.04307136 C9.00793159,2.6692317 9.00793159,3.24813465 8.38177125,3.87429499 C8.21046323,4.04560301 8.04506239,4.21691102 7.87375437,4.38231187 C7.37755184,4.89032874 6.904978,5.36290258 6.39105395,5.82366208 C6.37923961,5.83547642 6.36742526,5.8413836 6.36151809,5.85319794 C5.85350121,6.36121482 5.94801598,6.85741735 6.05434509,7.19412621 C6.06025226,7.21184773 6.06615944,7.22956925 6.07206661,7.24729077 C6.49147589,8.26332452 7.08219319,9.22028655 7.98008349,10.3603709 L7.98599066,10.3662781 C9.61637041,12.3747169 11.3353577,13.9401178 13.2315603,15.1392739 C13.4737544,15.2928604 13.7218556,15.416911 13.9581426,15.5350545 C14.1708008,15.6413836 14.3716447,15.7418055 14.5429527,15.8481347 C14.5665814,15.859949 14.5902101,15.8776705 14.6138388,15.8894849 C14.8146826,15.9899068 15.0037122,16.0371642 15.1986489,16.0371642 C15.6889442,16.0371642 15.9961172,15.7299912 16.0965392,15.6295693 L18.1167923,13.6093161 C18.3176362,13.4084722 18.6366236,13.1662781 19.0087755,13.1662781 C19.3750202,13.1662781 19.676286,13.3966579 19.8594084,13.5975017 C19.8653156,13.6034089 19.8653156,13.6034089 19.8712227,13.6093161 L23.126075,16.8641684 C23.7345139,17.4667001 23.7345139,18.0869532 23.1319822,18.7131136 Z" id="Shape"></path>
                </g>
                <polygon id="*" points="28 30.0420168 27.0724638 31.7002801 24.7768116 30.1092437 25.1478261 33 22.9217391 33 23.3391304 30.1092437 20.9275362 31.7002801 20 30.0420168 22.8057971 28.9663866 20.0463768 27.9355742 20.9971014 26.3221289 23.3391304 27.8907563 22.9449275 25 25.1478261 25 24.7768116 27.9131653 27.0724638 26.3221289 27.9768116 27.9355742 25.2405797 28.9887955"></polygon>
            </g>
        </g>
    </g>
</svg>
