<svg width="60px" height="60px" viewBox="0 0 60 60" version="1.1" xmlns="http://www.w3.org/2000/svg" xmlns:xlink="http://www.w3.org/1999/xlink">
    <g id="Page-1" stroke="none" stroke-width="1" fill="none" fill-rule="evenodd">
        <g id="Теле2" transform="translate(-275.000000, -1283.000000)">
            <g id="Group-3" transform="translate(240.000000, 1248.000000)">
                <g id="free" transform="translate(35.000000, 35.000000)">
                    <circle id="Oval" fill="#1F2229" cx="30" cy="30" r="30"></circle>
                    <path d="M29.91,36.08 L29.91,32.33 C31.89,32.09 33.6,30.53 33.6,24.95 C33.6,20.21 32.1,17.96 29.91,17.69 L29.91,14 C34.5,14.24 37.98,17.72 37.98,24.89 C37.98,32.36 34.23,35.78 29.91,36.08 Z M29.01,32.33 L29.01,36.08 C24.69,35.93 21,32.39 21,25.07 C21,17.84 24.75,14.21 29.01,14 L29.01,17.69 C26.82,17.96 25.44,20.45 25.44,25.07 C25.44,29.87 26.94,32.12 29.01,32.33 Z" id="0" fill="#FFFFFF" fill-rule="nonzero"></path>
                    <text id="руб." font-family="Tele2DisplaySerif-Regular, Tele2 DisplaySerif" font-size="9" font-weight="normal" fill="#FFFFFF">
                        <tspan x="22.342" y="47">руб.</tspan>
                    </text>
                </g>
            </g>
        </g>
    </g>
</svg>
