<svg width="60px" height="60px" viewBox="0 0 60 60" version="1.1" xmlns="http://www.w3.org/2000/svg" xmlns:xlink="http://www.w3.org/1999/xlink">
    <g id="Page-1" stroke="none" stroke-width="1" fill="none" fill-rule="evenodd">
        <g id="Теле2" transform="translate(-690.000000, -1283.000000)">
            <g id="Group-4" transform="translate(656.000000, 1248.000000)">
                <g id="Group-7" transform="translate(34.000000, 35.000000)">
                    <circle id="Oval" fill="#25292E" cx="30" cy="30" r="30"></circle>
                    <path d="M41.375,30.8768818 C41.375,32.0175615 41.0257982,32.188832 39.8617447,32.188832 L33.6338317,32.188832 L33.6338317,33.8530457 C37.4226653,33.8530457 39.4629202,33.8530457 39.7545963,33.8530457 C40.1921104,33.8530457 40.2706778,34.5822769 40.2706778,35.0167985 C40.2706778,35.45132 39.8180218,35.8524168 39.5408796,35.8695226 L32.8823914,35.8695226 L32.8823914,37.5337362 L37.450424,37.5337362 L37.6948696,37.5337362 C37.7829096,37.5494076 38.2610435,37.9780813 38.2610435,38.9205809 C38.2610435,39.2584163 38.1422885,39.3682544 38.1033641,39.4041737 C37.8907658,39.6006896 37.4617475,39.6238499 37.3353492,39.6164996 L37.3027942,39.6140033 L28.7776305,39.6140033 C25.7176021,39.6140033 24.4946665,38.4039813 24.4441354,38.3523907 L24.3897827,38.4021784 L24.3897827,27.3533255 L24.3819978,27.2972969 C24.3794501,27.2787132 24.3602002,27.1459922 24.3125,26.9430968 C25.3263759,26.3137467 27.1460675,25.1497232 27.9109671,23.4089172 C28.210654,22.1462819 28.0277302,20.5399274 27.3621958,18.5898539 L27.3454936,18.5085848 C27.3442197,18.501928 27.2248986,17.8075348 27.6370732,17.2909352 C27.9747959,16.8675315 28.5663829,16.0962004 29.4806122,16.0554271 C30.0818889,16.0283836 30.5244953,16.1666521 30.8334848,16.477444 C31.3989509,17.046189 31.4962561,18.6587801 31.4696459,19.0222721 L31.1631056,25.1908186 L39.5655082,25.1908186 C39.8596355,25.2761095 40.8579417,25.6301709 40.955182,26.526766 C41.0446375,27.3531868 40.6648764,27.869093 40.2706778,28.0027848 C39.8235419,28.1031924 37.3647902,28.0620031 35.3296781,27.9654787 L35.2475829,29.6277508 C36.2161649,29.6736553 37.577247,29.7263554 38.7261554,29.7263554 C39.6688349,29.7263554 40.4686971,29.6908522 40.7909916,29.5871162 C40.8692652,29.5620143 40.9454155,29.5331679 41.0197259,29.5008545 C41.2565753,29.8866747 41.375,30.3453504 41.375,30.8768818 Z M22.6875,38.6919753 C22.5869531,39.0644661 22.1216699,40.4117647 20.65625,40.4117647 C19.1932422,40.4117647 18.7269434,39.1692755 18.625,38.82036 L18.625,27.5812413 C18.625,25.7433902 19.2983594,25.3235294 20.7832031,25.3235294 C21.8959473,25.3235294 22.3957617,26.3594984 22.6190723,27.2285538 C22.6562695,27.3731045 22.6775977,27.4861316 22.6875,27.5444638 L22.6875,38.6919753 Z M42.0944255,28.3884583 C42.481383,27.8024556 42.6676702,27.0441152 42.5804043,26.2342372 C42.4809681,25.3106489 41.9670532,24.5364928 41.094117,23.9953469 C40.4934894,23.6229939 39.9246702,23.4908774 39.8617447,23.4769704 L39.7724043,23.457337 L33.015298,23.457337 L33.3191489,19.1231259 C33.3407234,18.7930392 33.3518389,16.5229053 32.2370198,15.3852584 C31.7947432,14.9338263 30.9834879,14.4075419 29.6425517,14.46876 C28.2433921,14.5314778 27.0102883,15.478948 26.3684479,16.2884171 C25.6029691,17.2541353 25.6959053,18.3761028 25.7479053,18.7220053 C26.0512826,19.4845603 26.2238995,20.7500589 26.2657561,22.5185011 C25.9675277,24.3706566 24.7943298,24.749597 24.0560957,25.2536575 C23.3729043,24.0971953 22.3109149,23.457337 21.0106383,23.457337 C19.694734,23.457337 18.1836012,23.8124871 17.4724799,25.0932866 C17.1156939,25.7358932 16.9582006,26.4325261 17,27.1831852 L17,38.9590033 L17.0221277,39.0514439 C17.2653936,40.0712904 18.3833936,42 20.8723404,42 C22.7841702,42 23.8855745,40.8120425 24.404883,39.7750168 C25.2386809,40.2824858 26.7327128,40.9092551 29.0319149,40.9092551 L37.3051702,40.9092551 C37.3351809,40.9107549 37.3777766,40.9121183 37.4306064,40.9121183 C37.7923936,40.9121183 38.6387766,40.8449012 39.2683085,40.270215 C39.5826596,39.9830764 39.9574468,39.4588371 39.9574468,38.5914222 C39.9574468,38.0435956 39.8284149,37.5940724 39.627883,37.2279911 L39.7920426,37.2279911 L39.8992234,37.1992228 C40.7220957,36.9779379 42.066766,36.2253239 41.8872553,34.808719 C41.8204574,34.2820256 41.6799676,33.6388296 41.4687868,33.3021984 C42.4942655,32.8444946 43,32.0919462 43,30.6835219 C43,29.4348917 42.5492872,28.7560393 42.0944255,28.3884583 Z" id="Fill-1" fill="#FFFFFF"></path>
                </g>
            </g>
        </g>
    </g>
</svg>
