<svg width="60px" height="60px" viewBox="0 0 60 60" version="1.1" xmlns="http://www.w3.org/2000/svg" xmlns:xlink="http://www.w3.org/1999/xlink">
    <g id="Page-1" stroke="none" stroke-width="1" fill="none" fill-rule="evenodd">
        <g id="Теле2" transform="translate(-1107.000000, -1283.000000)" fill-rule="nonzero">
            <g id="Group-5" transform="translate(1072.000000, 1248.000000)">
                <g id="transfer" transform="translate(35.000000, 35.000000)">
                    <circle id="Oval" fill="#25292E" cx="30" cy="30" r="30"></circle>
                    <path d="M40.5,21.7 L38.7,21.7 C38.8,21.3 38.9,21 38.9,20.6 L38.9,20.5 C38.9,18.5 37.3,17 35.4,17 C34.4,17 33.4,17.4 32.8,18.2 L30.1,21.2 L27.4,18.2 C26.7,17.5 25.8,17 24.8,17 C22.8,17 21.3,18.6 21.3,20.5 L21.3,20.6 C21.3,21 21.4,21.3 21.5,21.7 L19.7,21.7 C18.7958094,21.6919144 17.9263003,22.0475306 17.2869154,22.6869154 C16.6475306,23.3263003 16.2919144,24.1958094 16.3,25.1 L16.3,28.1 C16.3,28.8 16.9,29.3 17.5,29.3 L18,29.3 L18,41.8 C18,42.5 18.6,43 19.2,43 L40.6,43 C41.3,43 41.8,42.4 41.8,41.8 L41.8,29.3 L42.5,29.3 C43.2,29.3 43.7,28.7 43.7,28.1 L43.7,25.1 C43.9,23.2 42.4,21.7 40.5,21.7 L40.5,21.7 Z M34.3,19.6 C34.6,19.3 34.9,19.1 35.3,19.1 C36.1,19.1 36.7,19.7 36.7,20.5 L36.7,20.6 C36.7,21.4 36.1,22 35.3,22 L32.1,22 L34.3,19.6 Z M23.3,20.5 C23.3,19.7 23.9,19.1 24.7,19.1 C25.1,19.1 25.5,19.3 25.7,19.6 L27.9,22 L24.7,22 C23.9,22 23.3,21.4 23.3,20.6 L23.3,20.5 Z M18.3,27.1 L18.3,25 C18.3,24.3 18.9,23.8 19.5,23.8 L29.1,23.8 L29.1,27.1 L18.3,27.1 L18.3,27.1 Z M40,40.9 L20.2,40.9 L20.2,29 L40,29 L40,40.9 Z M41.7,27.1 L30.9,27.1 L30.9,23.8 L40.5,23.8 C41.2,23.8 41.7,24.4 41.7,25 L41.7,27.1 Z M25.4,38.4 L26.7,38.4 L26.7,32.5 L29.2,32.5 L29.2,31.4 L25.4,31.4 L25.4,38.4 Z M32.2,34.1 L31.4,34.1 L31.4,32.6 L34.2,32.6 L34.2,31.5 L30.2,31.5 L30.2,38.5 L32.2,38.5 C33.4,38.5 34.8,37.9 34.8,36.3 C34.7,34.8 33.9,34.1 32.2,34.1 L32.2,34.1 Z M32.1,37.3 L31.4,37.3 L31.4,35.2 L32.1,35.2 C33,35.2 33.4,35.6 33.4,36.3 C33.5,36.9 33,37.3 32.1,37.3 Z" id="Shape" fill="#FFFFFF"></path>
                </g>
            </g>
        </g>
    </g>
</svg>
