<svg width="114px" height="44px" viewBox="0 0 114 44" version="1.1" xmlns="http://www.w3.org/2000/svg" xmlns:xlink="http://www.w3.org/1999/xlink">
    <g id="Page-1" stroke="none" stroke-width="1" fill="none" fill-rule="evenodd">
        <g id="Теле2" transform="translate(-113.000000, -66.000000)" fill="#1A1919">
            <g id="tele2_logo_black" transform="translate(113.000000, 66.000000)">
                <g>
                    <polygon id="Fill-1" points="0.27708 15.4683413 0.27708 21.6949468 16.92228 19.8473505 16.92228 13.1076807"></polygon>
                    <polygon id="Fill-2" points="5.5884 22.0739119 5.5884 43.4114899 11.6828 43.4114899 11.6828 21.4458018"></polygon>
                    <polygon id="Fill-3" points="19.17004 12.7889028 19.17004 43.4112881 25.59124 43.4112881 25.59124 11.8782239"></polygon>
                    <polygon id="Fill-4" points="26.78764 11.7081982 26.78764 18.7522349 36.06004 17.7228771 36.06004 10.3934459"></polygon>
                    <polygon id="Fill-5" points="26.78764 23.9952587 26.78764 31.1688734 32.87484 30.8334239 32.87484 23.4672587"></polygon>
                    <polygon id="Fill-6" points="26.78764 36.3381468 26.78764 43.4112477 36.06004 43.4112477 36.06004 36.0559817"></polygon>
                    <polygon id="Fill-7" points="60.0388 6.98142752 60.0388 43.4114092 68.4564 43.4114092 68.4564 5.78737248"></polygon>
                    <polygon id="Fill-8" points="70.0294 5.56442569 70.0294 13.9438018 82.2966 12.5822239 82.2966 3.82460917"></polygon>
                    <polygon id="Fill-9" points="70.0294 20.2465394 70.0294 28.7813284 78.0702 28.3380991 78.0702 19.5510165"></polygon>
                    <polygon id="Fill-10" points="70.0294 35.0195193 70.0294 43.4114092 82.2966 43.4114092 82.2966 34.6457211"></polygon>
                    <polygon id="Fill-11" points="38.513 10.0452 38.513 43.4113284 45.8274 43.4113284 45.8274 9.00776881"></polygon>
                    <polygon id="Fill-12" points="47.19268 35.7168587 47.19268 43.411611 57.81068 43.411611 57.81068 35.3935193"></polygon>
                    <g id="Group-19" transform="translate(84.800000, 0.094862)">
                        <path d="M24.99896,3.31739817 C22.34016,0.780737615 18.43856,-0.259922936 14.17176,0.358902752 L14.17176,9.6529945 C15.89816,9.55611376 17.29936,10.2040037 17.92336,11.5058385 C18.90816,13.5601138 17.89256,16.6421321 15.49496,19.4972881 C11.79456,23.9033431 1.95616,32.9213248 1.95616,32.9213248 L16.08016,32.4534716 C24.71016,23.9445174 27.80976,18.779967 28.36456,12.3341688 C28.65776,8.92396697 27.43096,5.63769174 24.99896,3.31739817" id="Fill-13"></path>
                        <polygon id="Fill-15" points="0.2138 34.4626569 0.2186 43.3167486 28.863 43.3167486 28.863 33.5907303"></polygon>
                        <path d="M12.52472,0.5676 C4.20232,2.35545321 0.11552,8.53523303 0.58712,18.6180954 L9.46112,17.8232697 C9.05672,12.1270862 10.78312,10.7760037 12.52992,10.0332514 L12.52472,0.5676 Z" id="Fill-17"></path>
                    </g>
                </g>
            </g>
        </g>
    </g>
</svg>
